# xmcd
#
# Track frame offsets: 
#        150
#        14154
#        28034
#        42908
#        54996
#        69806
#        82329
#        94307
#        106847
#        119173
#        130093
#        143345
#        156796
#        169107
#        180919
#        192453
#        205116
#        217946
#        231249
#        244027
#        257433
#        269813
#        283576
#
# Disc length: 3958 seconds
#
# Revision: 0
# Processed by: cddbd v1.5.2PL0 Copyright (c) Steve Scherf et al.
# Submitted via: ExactAudioCopy v0.95b3
#
DISCID=4a0f7417
DTITLE=Big Bill Broonzy  - Volume 2 1930 Complete Edition
DYEAR=1900
DGENRE=
TTITLE0=You Got Me In This Mess
TTITLE1=You Got Me In This Mess
TTITLE2=Mama's Leaving Town
TTITLE3=Do That Thing
TTITLE4=You Can't Get Enough Of That Stuff
TTITLE5=Rollin' Mill
TTITLE6=Tadpole Blues
TTITLE7=Bow Leg Baby
TTITLE8=Skoodle Do Do
TTITLE9=Mountazin Girl Blues
TTITLE10=Saturday Night Rub
TTITLE11=Pig Meat Strut
TTITLE12=PapA's Gettin' Hot
TTITLE13=Pussy Cat Pussy Cat
TTITLE14=What You Call That
TTITLE15=Court House Blues
TTITLE16=Come On In
TTITLE17=Ain't Going There No More
TTITLE18=Barrel House Rag
TTITLE19=You Do It
TTITLE20=That Stuff I Got
TTITLE21=Pat That Bread
TTITLE22=Come On Mama
EXTD=
EXTT0=
EXTT1=
EXTT2=
EXTT3=
EXTT4=
EXTT5=
EXTT6=
EXTT7=
EXTT8=
EXTT9=
EXTT10=
EXTT11=
EXTT12=
EXTT13=
EXTT14=
EXTT15=
EXTT16=
EXTT17=
EXTT18=
EXTT19=
EXTT20=
EXTT21=
EXTT22=
PLAYORDER=
